<svg xmlns="http://www.w3.org/2000/svg" width="120" height="42" viewBox="0 0 500 137">
<g fill="#fff" fill-rule="nonzero">
<path d="M5.44,75.64q0-23.08,0-46.17a24,24,0,0,1,1.84-10,15.84,15.84,0,0,1,9.15-8.56,24.07,24.07,0,0,1,8.11-1.56C36.83,9,49.12,9.17,61.4,9.25A91.57,91.57,0,0,1,83,11.8,57.73,57.73,0,0,1,100.2,19a46.49,46.49,0,0,1,18,21.64,64.71,64.71,0,0,1,4.57,17.09c.49,3.8.77,7.61.89,11.45s.13,7.62.05,11.43A90,90,0,0,1,121,102.46a56.09,56.09,0,0,1-7,16.08,45.36,45.36,0,0,1-17.52,15.82A64.39,64.39,0,0,1,75,141a116.49,116.49,0,0,1-13,1c-11.67.21-23.35.08-35,.06a29.63,29.63,0,0,1-10.17-1.51c-6.37-2.31-9.83-7-11-13.5a35.09,35.09,0,0,1-.44-6.16Q5.45,98.25,5.44,75.64ZM46,75.43h0c0,7.48,0,15,0,22.43a12.22,12.22,0,0,0,.84,4.33,6.35,6.35,0,0,0,6.35,4.42c3.5,0,7,0,10.49,0a18.91,18.91,0,0,0,7.69-1.69c4.28-2,6.95-5.41,8.74-9.63A41.65,41.65,0,0,0,83,80.07,101,101,0,0,0,82.79,67a39.5,39.5,0,0,0-2.64-11.43c-2.86-6.82-7.89-10.8-15.33-11.26-4.13-.26-8.3-.12-12.45,0A5.58,5.58,0,0,0,47.67,47,10.8,10.8,0,0,0,46,52.86C46,60.38,46,67.91,46,75.43Z"/><path d="M237.34,143a16.83,16.83,0,0,1-11-3.74,17.06,17.06,0,0,1-5.21-7.08c-.62-1.53-1.22-3.06-1.82-4.6a3.14,3.14,0,0,0-3.42-2.37c-2.64,0-5.29.06-7.93.09-9.66.09-19.32,0-29,0l-7.43,0c-2,0-2.76.53-3.53,2.39-.86,2.09-1.59,4.22-2.6,6.24a15.26,15.26,0,0,1-11.25,8.73c-7.35,1.31-14.08-.32-19.59-5.58-3.78-3.61-4.83-8.23-4-13.31.45-2.64,1.72-5,2.74-7.42q11-26,22.08-52,9.06-21.33,18.13-42.66A22.64,22.64,0,0,1,180,12.79,20.17,20.17,0,0,1,191.3,8.31a28.29,28.29,0,0,1,8,.36,19.86,19.86,0,0,1,12.53,8.22,41,41,0,0,1,4.12,8l19,44.35q10.7,25,21.41,50a16,16,0,0,1-8.76,21.85A25.5,25.5,0,0,1,237.34,143Zm-44.6-50.64c2.09,0,4.17,0,6.26,0a3.27,3.27,0,0,0,3.45-2.82,5.72,5.72,0,0,0-.25-2.79c-1.79-5.5-3.55-11-5.34-16.52a15.9,15.9,0,0,0-1.41-3.73,3.11,3.11,0,0,0-5.29-.07,7,7,0,0,0-.83,1.85q-2,6.4-4.08,12.8c-.7,2.19-1.45,4.37-2.05,6.59-.73,2.69.88,4.69,3.64,4.69Z" /><path d="M407.44,110.29q0-8.74,0-17.47a5,5,0,0,0-.81-2.81Q391.15,65.95,375.7,41.88c-1.65-2.57-3.32-5.13-4.93-7.73a14.91,14.91,0,0,1-2.06-11.31,14.29,14.29,0,0,1,3.89-7.13,20.67,20.67,0,0,1,15.9-6.48,17.3,17.3,0,0,1,14.74,8.53C410.15,28.8,417,39.91,423.8,51c.59,1,1.16,1.92,2.41,2.14a2.75,2.75,0,0,0,3-1.14c.91-1.37,1.75-2.79,2.61-4.2,6.1-10,12.16-20,18.29-30a16.74,16.74,0,0,1,11.4-8.15c7.65-1.41,14.44.66,19.68,6.47,4.26,4.72,4.54,10.25,1.94,16a63.57,63.57,0,0,1-4.74,7.76Q462.22,65,446,90.11a4.91,4.91,0,0,0-.78,2.75c0,11.48-.12,23,0,34.44a15.89,15.89,0,0,1-10.32,15.22,25.45,25.45,0,0,1-11.31,1.38A18.81,18.81,0,0,1,414.8,141a14.52,14.52,0,0,1-7.24-11.87c-.31-5.11-.06-10.24-.12-15.36C407.43,112.62,407.44,111.45,407.44,110.29Z"/><path d="M331.79,143.52H301.65a39.37,39.37,0,0,1-8.32-.71c-7.74-1.68-12.64-6.46-13.93-14.57a41.35,41.35,0,0,1-.42-6.52c0-7.57.09-15.15,0-22.72-.18-10.12,0-20.24-.09-30.36,0-5.56,0-11.12,0-16.67a15.47,15.47,0,0,1,.26-2.82,3.87,3.87,0,0,1,4-3.41q14.74,0,29.49,0a3.77,3.77,0,0,1,3.87,3,8.42,8.42,0,0,1,.3,2.08c.12,5.68.16,11.35.08,17-.18,13.3,0,26.6-.09,39.9a5.62,5.62,0,0,0,0,.94,2.74,2.74,0,0,0,2.86,2.55c.29,0,.58,0,.87,0q21.33,0,42.67,0a15.09,15.09,0,0,1,7.85,2.06,14.82,14.82,0,0,1,7.13,10.57,18,18,0,0,1-.42,8.78,14.59,14.59,0,0,1-11,10.47,16,16,0,0,1-3.83.37Z" /><path d="M297.89,38.21H283.7a6.63,6.63,0,0,1-1.8-.18A3.88,3.88,0,0,1,279,34.3a48.38,48.38,0,0,1,.34-13.2,14.69,14.69,0,0,1,7.82-10.32A21.19,21.19,0,0,1,297,8.28,22.57,22.57,0,0,1,308.3,10.6a15.24,15.24,0,0,1,8.24,10.85,19.17,19.17,0,0,1,.32,3.91c0,2.64.05,5.29-.09,7.93a7,7,0,0,1-.38,2.14c-.75,2-1.92,2.76-4.15,2.77C307.45,38.22,302.67,38.21,297.89,38.21Z"/></g></svg>